<mxfile host="app.diagrams.net" agent="Mozilla/5.0 (Windows NT 10.0; Win64; x64) AppleWebKit/537.36 (KHTML, like Gecko) Chrome/129.0.0.0 Safari/537.36" version="24.7.16" pages="2">
  <diagram name="Diagrama Conceitual" id="CC8LLleVV1qBTFCVBhWN">
    <mxGraphModel grid="0" page="0" gridSize="10" guides="1" tooltips="1" connect="1" arrows="1" fold="1" pageScale="1" pageWidth="827" pageHeight="1169" math="0" shadow="0">
      <root>
        <mxCell id="0" />
        <mxCell id="1" parent="0" />
        <mxCell id="x_O4aQSKaC0x3yO4h5Vk-1" value="Diagrama Conceitual" style="text;html=1;align=center;verticalAlign=middle;whiteSpace=wrap;rounded=0;fontSize=45;" vertex="1" parent="1">
          <mxGeometry x="-462" y="-333" width="462" height="77" as="geometry" />
        </mxCell>
        <mxCell id="x_O4aQSKaC0x3yO4h5Vk-2" value="Rede Social Gamer&lt;div&gt;Gamefacer&lt;/div&gt;" style="text;html=1;align=center;verticalAlign=middle;whiteSpace=wrap;rounded=0;fontSize=30;" vertex="1" parent="1">
          <mxGeometry x="-462" y="-236" width="462" height="77" as="geometry" />
        </mxCell>
        <mxCell id="x_O4aQSKaC0x3yO4h5Vk-4" value="Usuarios" style="whiteSpace=wrap;html=1;align=center;" vertex="1" parent="1">
          <mxGeometry x="-801" y="-77" width="100" height="40" as="geometry" />
        </mxCell>
        <mxCell id="x_O4aQSKaC0x3yO4h5Vk-5" value="Postagens" style="whiteSpace=wrap;html=1;align=center;" vertex="1" parent="1">
          <mxGeometry x="-333" y="-77" width="100" height="40" as="geometry" />
        </mxCell>
        <mxCell id="x_O4aQSKaC0x3yO4h5Vk-6" value="Comentarios" style="whiteSpace=wrap;html=1;align=center;" vertex="1" parent="1">
          <mxGeometry x="117" y="-77" width="100" height="40" as="geometry" />
        </mxCell>
        <mxCell id="x_O4aQSKaC0x3yO4h5Vk-7" value="Curtidas" style="whiteSpace=wrap;html=1;align=center;" vertex="1" parent="1">
          <mxGeometry x="117" y="173" width="100" height="40" as="geometry" />
        </mxCell>
        <mxCell id="x_O4aQSKaC0x3yO4h5Vk-8" value="Grupos" style="whiteSpace=wrap;html=1;align=center;" vertex="1" parent="1">
          <mxGeometry x="-801" y="155" width="100" height="40" as="geometry" />
        </mxCell>
        <mxCell id="x_O4aQSKaC0x3yO4h5Vk-9" value="Membros" style="whiteSpace=wrap;html=1;align=center;" vertex="1" parent="1">
          <mxGeometry x="-340" y="155" width="100" height="40" as="geometry" />
        </mxCell>
        <mxCell id="x_O4aQSKaC0x3yO4h5Vk-10" value="Jogos" style="whiteSpace=wrap;html=1;align=center;" vertex="1" parent="1">
          <mxGeometry x="-801" y="408" width="100" height="40" as="geometry" />
        </mxCell>
        <mxCell id="x_O4aQSKaC0x3yO4h5Vk-11" value="possui" style="shape=rhombus;perimeter=rhombusPerimeter;whiteSpace=wrap;html=1;align=center;" vertex="1" parent="1">
          <mxGeometry x="-577" y="-87" width="120" height="60" as="geometry" />
        </mxCell>
        <mxCell id="x_O4aQSKaC0x3yO4h5Vk-12" value="possui" style="shape=rhombus;perimeter=rhombusPerimeter;whiteSpace=wrap;html=1;align=center;" vertex="1" parent="1">
          <mxGeometry x="-118" y="-87" width="120" height="60" as="geometry" />
        </mxCell>
        <mxCell id="x_O4aQSKaC0x3yO4h5Vk-13" value="possui" style="shape=rhombus;perimeter=rhombusPerimeter;whiteSpace=wrap;html=1;align=center;" vertex="1" parent="1">
          <mxGeometry x="107" y="35" width="120" height="60" as="geometry" />
        </mxCell>
        <mxCell id="x_O4aQSKaC0x3yO4h5Vk-14" value="possui" style="shape=rhombus;perimeter=rhombusPerimeter;whiteSpace=wrap;html=1;align=center;" vertex="1" parent="1">
          <mxGeometry x="-811" y="274" width="120" height="60" as="geometry" />
        </mxCell>
        <mxCell id="x_O4aQSKaC0x3yO4h5Vk-15" value="possui" style="shape=rhombus;perimeter=rhombusPerimeter;whiteSpace=wrap;html=1;align=center;" vertex="1" parent="1">
          <mxGeometry x="-588" y="145" width="120" height="60" as="geometry" />
        </mxCell>
        <mxCell id="x_O4aQSKaC0x3yO4h5Vk-16" value="" style="endArrow=none;html=1;rounded=0;fontSize=12;startSize=8;endSize=8;curved=1;exitX=1;exitY=0.5;exitDx=0;exitDy=0;entryX=0;entryY=0.5;entryDx=0;entryDy=0;" edge="1" parent="1" source="x_O4aQSKaC0x3yO4h5Vk-4" target="x_O4aQSKaC0x3yO4h5Vk-11">
          <mxGeometry relative="1" as="geometry">
            <mxPoint x="-718" y="-8" as="sourcePoint" />
            <mxPoint x="-558" y="-8" as="targetPoint" />
          </mxGeometry>
        </mxCell>
        <mxCell id="x_O4aQSKaC0x3yO4h5Vk-17" value="" style="endArrow=none;html=1;rounded=0;fontSize=12;startSize=8;endSize=8;curved=1;exitX=1;exitY=0.5;exitDx=0;exitDy=0;entryX=0;entryY=0.5;entryDx=0;entryDy=0;" edge="1" parent="1" source="x_O4aQSKaC0x3yO4h5Vk-11" target="x_O4aQSKaC0x3yO4h5Vk-5">
          <mxGeometry relative="1" as="geometry">
            <mxPoint x="-471" y="4" as="sourcePoint" />
            <mxPoint x="-351" y="4" as="targetPoint" />
          </mxGeometry>
        </mxCell>
        <mxCell id="x_O4aQSKaC0x3yO4h5Vk-18" value="" style="endArrow=none;html=1;rounded=0;fontSize=12;startSize=8;endSize=8;curved=1;exitX=1;exitY=0.5;exitDx=0;exitDy=0;entryX=0;entryY=0.5;entryDx=0;entryDy=0;" edge="1" parent="1" source="x_O4aQSKaC0x3yO4h5Vk-5" target="x_O4aQSKaC0x3yO4h5Vk-12">
          <mxGeometry relative="1" as="geometry">
            <mxPoint x="-233" y="-47" as="sourcePoint" />
            <mxPoint x="-109" y="-47" as="targetPoint" />
          </mxGeometry>
        </mxCell>
        <mxCell id="x_O4aQSKaC0x3yO4h5Vk-19" value="" style="endArrow=none;html=1;rounded=0;fontSize=12;startSize=8;endSize=8;curved=1;exitX=1;exitY=0.5;exitDx=0;exitDy=0;entryX=0;entryY=0.5;entryDx=0;entryDy=0;" edge="1" parent="1" source="x_O4aQSKaC0x3yO4h5Vk-12" target="x_O4aQSKaC0x3yO4h5Vk-6">
          <mxGeometry relative="1" as="geometry">
            <mxPoint x="-14.960000000000036" y="-17.019999999999982" as="sourcePoint" />
            <mxPoint x="107" y="-19" as="targetPoint" />
          </mxGeometry>
        </mxCell>
        <mxCell id="x_O4aQSKaC0x3yO4h5Vk-21" value="" style="endArrow=none;html=1;rounded=0;fontSize=12;startSize=8;endSize=8;curved=1;exitX=0.5;exitY=1;exitDx=0;exitDy=0;entryX=0.492;entryY=0;entryDx=0;entryDy=0;entryPerimeter=0;" edge="1" parent="1" source="x_O4aQSKaC0x3yO4h5Vk-6" target="x_O4aQSKaC0x3yO4h5Vk-13">
          <mxGeometry relative="1" as="geometry">
            <mxPoint x="15" y="7" as="sourcePoint" />
            <mxPoint x="130" y="7" as="targetPoint" />
          </mxGeometry>
        </mxCell>
        <mxCell id="x_O4aQSKaC0x3yO4h5Vk-22" value="" style="endArrow=none;html=1;rounded=0;fontSize=12;startSize=8;endSize=8;curved=1;exitX=0.5;exitY=1;exitDx=0;exitDy=0;entryX=0.5;entryY=0;entryDx=0;entryDy=0;" edge="1" parent="1" source="x_O4aQSKaC0x3yO4h5Vk-13" target="x_O4aQSKaC0x3yO4h5Vk-7">
          <mxGeometry relative="1" as="geometry">
            <mxPoint x="89" y="90" as="sourcePoint" />
            <mxPoint x="88" y="162" as="targetPoint" />
          </mxGeometry>
        </mxCell>
        <mxCell id="x_O4aQSKaC0x3yO4h5Vk-24" value="" style="endArrow=none;html=1;rounded=0;fontSize=12;startSize=8;endSize=8;curved=1;exitX=1;exitY=0.5;exitDx=0;exitDy=0;entryX=0;entryY=0.5;entryDx=0;entryDy=0;" edge="1" parent="1" source="S9aa1LkK4K-3fdbfS3HC-1" target="x_O4aQSKaC0x3yO4h5Vk-7">
          <mxGeometry relative="1" as="geometry">
            <mxPoint x="-33" y="59" as="sourcePoint" />
            <mxPoint x="-33" y="137" as="targetPoint" />
          </mxGeometry>
        </mxCell>
        <mxCell id="x_O4aQSKaC0x3yO4h5Vk-25" value="1" style="text;strokeColor=none;fillColor=none;spacingLeft=4;spacingRight=4;overflow=hidden;rotatable=0;points=[[0,0.5],[1,0.5]];portConstraint=eastwest;fontSize=12;whiteSpace=wrap;html=1;" vertex="1" parent="1">
          <mxGeometry x="-701" y="-85" width="40" height="30" as="geometry" />
        </mxCell>
        <mxCell id="x_O4aQSKaC0x3yO4h5Vk-26" value="N" style="text;strokeColor=none;fillColor=none;spacingLeft=4;spacingRight=4;overflow=hidden;rotatable=0;points=[[0,0.5],[1,0.5]];portConstraint=eastwest;fontSize=12;whiteSpace=wrap;html=1;" vertex="1" parent="1">
          <mxGeometry x="-359" y="-87" width="40" height="30" as="geometry" />
        </mxCell>
        <mxCell id="x_O4aQSKaC0x3yO4h5Vk-27" value="N" style="text;strokeColor=none;fillColor=none;spacingLeft=4;spacingRight=4;overflow=hidden;rotatable=0;points=[[0,0.5],[1,0.5]];portConstraint=eastwest;fontSize=12;whiteSpace=wrap;html=1;" vertex="1" parent="1">
          <mxGeometry x="91" y="-57" width="40" height="30" as="geometry" />
        </mxCell>
        <mxCell id="x_O4aQSKaC0x3yO4h5Vk-28" value="N" style="text;strokeColor=none;fillColor=none;spacingLeft=4;spacingRight=4;overflow=hidden;rotatable=0;points=[[0,0.5],[1,0.5]];portConstraint=eastwest;fontSize=12;whiteSpace=wrap;html=1;" vertex="1" parent="1">
          <mxGeometry x="199" y="146" width="40" height="30" as="geometry" />
        </mxCell>
        <mxCell id="x_O4aQSKaC0x3yO4h5Vk-29" value="N" style="text;strokeColor=none;fillColor=none;spacingLeft=4;spacingRight=4;overflow=hidden;rotatable=0;points=[[0,0.5],[1,0.5]];portConstraint=eastwest;fontSize=12;whiteSpace=wrap;html=1;" vertex="1" parent="1">
          <mxGeometry x="93" y="192" width="40" height="30" as="geometry" />
        </mxCell>
        <mxCell id="x_O4aQSKaC0x3yO4h5Vk-30" value="1" style="text;strokeColor=none;fillColor=none;spacingLeft=4;spacingRight=4;overflow=hidden;rotatable=0;points=[[0,0.5],[1,0.5]];portConstraint=eastwest;fontSize=12;whiteSpace=wrap;html=1;" vertex="1" parent="1">
          <mxGeometry x="199" y="-37" width="40" height="30" as="geometry" />
        </mxCell>
        <mxCell id="x_O4aQSKaC0x3yO4h5Vk-31" value="1" style="text;strokeColor=none;fillColor=none;spacingLeft=4;spacingRight=4;overflow=hidden;rotatable=0;points=[[0,0.5],[1,0.5]];portConstraint=eastwest;fontSize=12;whiteSpace=wrap;html=1;" vertex="1" parent="1">
          <mxGeometry x="-330" y="-35" width="40" height="30" as="geometry" />
        </mxCell>
        <mxCell id="x_O4aQSKaC0x3yO4h5Vk-32" value="" style="endArrow=none;html=1;rounded=0;fontSize=12;startSize=8;endSize=8;curved=1;exitX=1;exitY=0.5;exitDx=0;exitDy=0;entryX=0;entryY=0.5;entryDx=0;entryDy=0;" edge="1" parent="1" source="x_O4aQSKaC0x3yO4h5Vk-8" target="x_O4aQSKaC0x3yO4h5Vk-15">
          <mxGeometry relative="1" as="geometry">
            <mxPoint x="-664" y="139" as="sourcePoint" />
            <mxPoint x="-540" y="139" as="targetPoint" />
          </mxGeometry>
        </mxCell>
        <mxCell id="x_O4aQSKaC0x3yO4h5Vk-33" value="possui" style="shape=rhombus;perimeter=rhombusPerimeter;whiteSpace=wrap;html=1;align=center;" vertex="1" parent="1">
          <mxGeometry x="-811" y="27" width="120" height="60" as="geometry" />
        </mxCell>
        <mxCell id="x_O4aQSKaC0x3yO4h5Vk-34" value="" style="endArrow=none;html=1;rounded=0;fontSize=12;startSize=8;endSize=8;curved=1;exitX=0.5;exitY=1;exitDx=0;exitDy=0;entryX=0.5;entryY=0;entryDx=0;entryDy=0;" edge="1" parent="1" source="x_O4aQSKaC0x3yO4h5Vk-4" target="x_O4aQSKaC0x3yO4h5Vk-33">
          <mxGeometry relative="1" as="geometry">
            <mxPoint x="-665" y="47" as="sourcePoint" />
            <mxPoint x="-751" y="32" as="targetPoint" />
          </mxGeometry>
        </mxCell>
        <mxCell id="x_O4aQSKaC0x3yO4h5Vk-35" value="" style="endArrow=none;html=1;rounded=0;fontSize=12;startSize=8;endSize=8;curved=1;entryX=0.5;entryY=0;entryDx=0;entryDy=0;exitX=0.5;exitY=1;exitDx=0;exitDy=0;" edge="1" parent="1" source="x_O4aQSKaC0x3yO4h5Vk-33" target="x_O4aQSKaC0x3yO4h5Vk-8">
          <mxGeometry relative="1" as="geometry">
            <mxPoint x="-751" y="100" as="sourcePoint" />
            <mxPoint x="-685" y="124" as="targetPoint" />
          </mxGeometry>
        </mxCell>
        <mxCell id="x_O4aQSKaC0x3yO4h5Vk-36" value="" style="endArrow=none;html=1;rounded=0;fontSize=12;startSize=8;endSize=8;curved=1;exitX=1;exitY=0.5;exitDx=0;exitDy=0;entryX=0;entryY=0.5;entryDx=0;entryDy=0;" edge="1" parent="1" source="x_O4aQSKaC0x3yO4h5Vk-15" target="x_O4aQSKaC0x3yO4h5Vk-9">
          <mxGeometry relative="1" as="geometry">
            <mxPoint x="-497" y="218" as="sourcePoint" />
            <mxPoint x="-384" y="218" as="targetPoint" />
          </mxGeometry>
        </mxCell>
        <mxCell id="x_O4aQSKaC0x3yO4h5Vk-39" value="1" style="text;strokeColor=none;fillColor=none;spacingLeft=4;spacingRight=4;overflow=hidden;rotatable=0;points=[[0,0.5],[1,0.5]];portConstraint=eastwest;fontSize=12;whiteSpace=wrap;html=1;" vertex="1" parent="1">
          <mxGeometry x="-801" y="-37" width="40" height="30" as="geometry" />
        </mxCell>
        <mxCell id="x_O4aQSKaC0x3yO4h5Vk-40" value="N" style="text;strokeColor=none;fillColor=none;spacingLeft=4;spacingRight=4;overflow=hidden;rotatable=0;points=[[0,0.5],[1,0.5]];portConstraint=eastwest;fontSize=12;whiteSpace=wrap;html=1;" vertex="1" parent="1">
          <mxGeometry x="-801" y="127" width="40" height="30" as="geometry" />
        </mxCell>
        <mxCell id="x_O4aQSKaC0x3yO4h5Vk-41" value="N" style="text;strokeColor=none;fillColor=none;spacingLeft=4;spacingRight=4;overflow=hidden;rotatable=0;points=[[0,0.5],[1,0.5]];portConstraint=eastwest;fontSize=12;whiteSpace=wrap;html=1;" vertex="1" parent="1">
          <mxGeometry x="-731" y="199" width="40" height="30" as="geometry" />
        </mxCell>
        <mxCell id="x_O4aQSKaC0x3yO4h5Vk-42" value="N" style="text;strokeColor=none;fillColor=none;spacingLeft=4;spacingRight=4;overflow=hidden;rotatable=0;points=[[0,0.5],[1,0.5]];portConstraint=eastwest;fontSize=12;whiteSpace=wrap;html=1;" vertex="1" parent="1">
          <mxGeometry x="-733" y="378" width="40" height="30" as="geometry" />
        </mxCell>
        <mxCell id="x_O4aQSKaC0x3yO4h5Vk-43" value="N" style="text;strokeColor=none;fillColor=none;spacingLeft=4;spacingRight=4;overflow=hidden;rotatable=0;points=[[0,0.5],[1,0.5]];portConstraint=eastwest;fontSize=12;whiteSpace=wrap;html=1;" vertex="1" parent="1">
          <mxGeometry x="-699" y="143" width="40" height="30" as="geometry" />
        </mxCell>
        <mxCell id="x_O4aQSKaC0x3yO4h5Vk-44" value="N" style="text;strokeColor=none;fillColor=none;spacingLeft=4;spacingRight=4;overflow=hidden;rotatable=0;points=[[0,0.5],[1,0.5]];portConstraint=eastwest;fontSize=12;whiteSpace=wrap;html=1;" vertex="1" parent="1">
          <mxGeometry x="-363" y="143" width="40" height="30" as="geometry" />
        </mxCell>
        <mxCell id="x_O4aQSKaC0x3yO4h5Vk-45" value="" style="endArrow=none;html=1;rounded=0;fontSize=12;startSize=8;endSize=8;curved=1;entryX=0.5;entryY=0;entryDx=0;entryDy=0;exitX=0.5;exitY=1;exitDx=0;exitDy=0;" edge="1" parent="1" source="x_O4aQSKaC0x3yO4h5Vk-8" target="x_O4aQSKaC0x3yO4h5Vk-14">
          <mxGeometry relative="1" as="geometry">
            <mxPoint x="-674" y="211" as="sourcePoint" />
            <mxPoint x="-674" y="279" as="targetPoint" />
          </mxGeometry>
        </mxCell>
        <mxCell id="x_O4aQSKaC0x3yO4h5Vk-46" value="" style="endArrow=none;html=1;rounded=0;fontSize=12;startSize=8;endSize=8;curved=1;entryX=0.5;entryY=0;entryDx=0;entryDy=0;exitX=0.5;exitY=1;exitDx=0;exitDy=0;" edge="1" parent="1" source="x_O4aQSKaC0x3yO4h5Vk-14" target="x_O4aQSKaC0x3yO4h5Vk-10">
          <mxGeometry relative="1" as="geometry">
            <mxPoint x="-653" y="313" as="sourcePoint" />
            <mxPoint x="-653" y="392" as="targetPoint" />
          </mxGeometry>
        </mxCell>
        <mxCell id="S9aa1LkK4K-3fdbfS3HC-1" value="possui" style="shape=rhombus;perimeter=rhombusPerimeter;whiteSpace=wrap;html=1;align=center;" vertex="1" parent="1">
          <mxGeometry x="-179" y="42" width="120" height="60" as="geometry" />
        </mxCell>
        <mxCell id="S9aa1LkK4K-3fdbfS3HC-2" value="" style="endArrow=none;html=1;rounded=0;fontSize=12;startSize=8;endSize=8;curved=1;exitX=0.5;exitY=1;exitDx=0;exitDy=0;entryX=0;entryY=0.5;entryDx=0;entryDy=0;" edge="1" parent="1" source="x_O4aQSKaC0x3yO4h5Vk-5" target="S9aa1LkK4K-3fdbfS3HC-1">
          <mxGeometry relative="1" as="geometry">
            <mxPoint x="-277" y="39" as="sourcePoint" />
            <mxPoint x="-131" y="132" as="targetPoint" />
          </mxGeometry>
        </mxCell>
        <mxCell id="S9aa1LkK4K-3fdbfS3HC-3" value="1" style="text;strokeColor=none;fillColor=none;spacingLeft=4;spacingRight=4;overflow=hidden;rotatable=0;points=[[0,0.5],[1,0.5]];portConstraint=eastwest;fontSize=12;whiteSpace=wrap;html=1;" vertex="1" parent="1">
          <mxGeometry x="-224" y="-57" width="40" height="30" as="geometry" />
        </mxCell>
      </root>
    </mxGraphModel>
  </diagram>
  <diagram id="h6Gxv3cjjbfuJWmUuY9S" name="Diagrama Logico">
    <mxGraphModel grid="0" page="0" gridSize="10" guides="1" tooltips="1" connect="1" arrows="1" fold="1" pageScale="1" pageWidth="827" pageHeight="1169" math="0" shadow="0">
      <root>
        <mxCell id="0" />
        <mxCell id="1" parent="0" />
        <mxCell id="qojPGHn3LLw-u9lGadzY-1" value="Diagrama Lógico" style="text;html=1;align=center;verticalAlign=middle;whiteSpace=wrap;rounded=0;fontSize=45;" vertex="1" parent="1">
          <mxGeometry x="-223" y="-841" width="462" height="77" as="geometry" />
        </mxCell>
        <mxCell id="vTq5wuSAa58Qdb8LBSVn-1" value="Rede Social Gamer&lt;div&gt;Gamefacer&lt;/div&gt;" style="text;html=1;align=center;verticalAlign=middle;whiteSpace=wrap;rounded=0;fontSize=30;" vertex="1" parent="1">
          <mxGeometry x="-228" y="-757" width="462" height="77" as="geometry" />
        </mxCell>
        <mxCell id="4cTYFnNjRpCWiYsqCbcR-1" value="Usuarios" style="shape=table;startSize=30;container=1;collapsible=1;childLayout=tableLayout;fixedRows=1;rowLines=0;fontStyle=1;align=center;resizeLast=1;html=1;" vertex="1" parent="1">
          <mxGeometry x="-907" y="-487" width="239.75" height="210" as="geometry" />
        </mxCell>
        <mxCell id="4cTYFnNjRpCWiYsqCbcR-2" value="" style="shape=tableRow;horizontal=0;startSize=0;swimlaneHead=0;swimlaneBody=0;fillColor=none;collapsible=0;dropTarget=0;points=[[0,0.5],[1,0.5]];portConstraint=eastwest;top=0;left=0;right=0;bottom=1;" vertex="1" parent="4cTYFnNjRpCWiYsqCbcR-1">
          <mxGeometry y="30" width="239.75" height="30" as="geometry" />
        </mxCell>
        <mxCell id="4cTYFnNjRpCWiYsqCbcR-3" value="PK" style="shape=partialRectangle;connectable=0;fillColor=none;top=0;left=0;bottom=0;right=0;fontStyle=1;overflow=hidden;whiteSpace=wrap;html=1;" vertex="1" parent="4cTYFnNjRpCWiYsqCbcR-2">
          <mxGeometry width="30" height="30" as="geometry">
            <mxRectangle width="30" height="30" as="alternateBounds" />
          </mxGeometry>
        </mxCell>
        <mxCell id="4cTYFnNjRpCWiYsqCbcR-4" value="IdUsuario : INT" style="shape=partialRectangle;connectable=0;fillColor=none;top=0;left=0;bottom=0;right=0;align=left;spacingLeft=6;fontStyle=5;overflow=hidden;whiteSpace=wrap;html=1;" vertex="1" parent="4cTYFnNjRpCWiYsqCbcR-2">
          <mxGeometry x="30" width="209.75" height="30" as="geometry">
            <mxRectangle width="209.75" height="30" as="alternateBounds" />
          </mxGeometry>
        </mxCell>
        <mxCell id="4cTYFnNjRpCWiYsqCbcR-5" value="" style="shape=tableRow;horizontal=0;startSize=0;swimlaneHead=0;swimlaneBody=0;fillColor=none;collapsible=0;dropTarget=0;points=[[0,0.5],[1,0.5]];portConstraint=eastwest;top=0;left=0;right=0;bottom=0;" vertex="1" parent="4cTYFnNjRpCWiYsqCbcR-1">
          <mxGeometry y="60" width="239.75" height="30" as="geometry" />
        </mxCell>
        <mxCell id="4cTYFnNjRpCWiYsqCbcR-6" value="" style="shape=partialRectangle;connectable=0;fillColor=none;top=0;left=0;bottom=0;right=0;editable=1;overflow=hidden;whiteSpace=wrap;html=1;" vertex="1" parent="4cTYFnNjRpCWiYsqCbcR-5">
          <mxGeometry width="30" height="30" as="geometry">
            <mxRectangle width="30" height="30" as="alternateBounds" />
          </mxGeometry>
        </mxCell>
        <mxCell id="4cTYFnNjRpCWiYsqCbcR-7" value="NomeUsuario : NVARCHAR(MAX)" style="shape=partialRectangle;connectable=0;fillColor=none;top=0;left=0;bottom=0;right=0;align=left;spacingLeft=6;overflow=hidden;whiteSpace=wrap;html=1;" vertex="1" parent="4cTYFnNjRpCWiYsqCbcR-5">
          <mxGeometry x="30" width="209.75" height="30" as="geometry">
            <mxRectangle width="209.75" height="30" as="alternateBounds" />
          </mxGeometry>
        </mxCell>
        <mxCell id="4cTYFnNjRpCWiYsqCbcR-8" value="" style="shape=tableRow;horizontal=0;startSize=0;swimlaneHead=0;swimlaneBody=0;fillColor=none;collapsible=0;dropTarget=0;points=[[0,0.5],[1,0.5]];portConstraint=eastwest;top=0;left=0;right=0;bottom=0;" vertex="1" parent="4cTYFnNjRpCWiYsqCbcR-1">
          <mxGeometry y="90" width="239.75" height="30" as="geometry" />
        </mxCell>
        <mxCell id="4cTYFnNjRpCWiYsqCbcR-9" value="" style="shape=partialRectangle;connectable=0;fillColor=none;top=0;left=0;bottom=0;right=0;editable=1;overflow=hidden;whiteSpace=wrap;html=1;" vertex="1" parent="4cTYFnNjRpCWiYsqCbcR-8">
          <mxGeometry width="30" height="30" as="geometry">
            <mxRectangle width="30" height="30" as="alternateBounds" />
          </mxGeometry>
        </mxCell>
        <mxCell id="4cTYFnNjRpCWiYsqCbcR-10" value="Email : NVARCHAR(MAX)" style="shape=partialRectangle;connectable=0;fillColor=none;top=0;left=0;bottom=0;right=0;align=left;spacingLeft=6;overflow=hidden;whiteSpace=wrap;html=1;" vertex="1" parent="4cTYFnNjRpCWiYsqCbcR-8">
          <mxGeometry x="30" width="209.75" height="30" as="geometry">
            <mxRectangle width="209.75" height="30" as="alternateBounds" />
          </mxGeometry>
        </mxCell>
        <mxCell id="4cTYFnNjRpCWiYsqCbcR-11" value="" style="shape=tableRow;horizontal=0;startSize=0;swimlaneHead=0;swimlaneBody=0;fillColor=none;collapsible=0;dropTarget=0;points=[[0,0.5],[1,0.5]];portConstraint=eastwest;top=0;left=0;right=0;bottom=0;" vertex="1" parent="4cTYFnNjRpCWiYsqCbcR-1">
          <mxGeometry y="120" width="239.75" height="30" as="geometry" />
        </mxCell>
        <mxCell id="4cTYFnNjRpCWiYsqCbcR-12" value="" style="shape=partialRectangle;connectable=0;fillColor=none;top=0;left=0;bottom=0;right=0;editable=1;overflow=hidden;whiteSpace=wrap;html=1;" vertex="1" parent="4cTYFnNjRpCWiYsqCbcR-11">
          <mxGeometry width="30" height="30" as="geometry">
            <mxRectangle width="30" height="30" as="alternateBounds" />
          </mxGeometry>
        </mxCell>
        <mxCell id="4cTYFnNjRpCWiYsqCbcR-13" value="Senha : NVARCHAR(MAX)" style="shape=partialRectangle;connectable=0;fillColor=none;top=0;left=0;bottom=0;right=0;align=left;spacingLeft=6;overflow=hidden;whiteSpace=wrap;html=1;" vertex="1" parent="4cTYFnNjRpCWiYsqCbcR-11">
          <mxGeometry x="30" width="209.75" height="30" as="geometry">
            <mxRectangle width="209.75" height="30" as="alternateBounds" />
          </mxGeometry>
        </mxCell>
        <mxCell id="4cTYFnNjRpCWiYsqCbcR-14" value="" style="shape=tableRow;horizontal=0;startSize=0;swimlaneHead=0;swimlaneBody=0;fillColor=none;collapsible=0;dropTarget=0;points=[[0,0.5],[1,0.5]];portConstraint=eastwest;top=0;left=0;right=0;bottom=0;" vertex="1" parent="4cTYFnNjRpCWiYsqCbcR-1">
          <mxGeometry y="150" width="239.75" height="30" as="geometry" />
        </mxCell>
        <mxCell id="4cTYFnNjRpCWiYsqCbcR-15" value="" style="shape=partialRectangle;connectable=0;fillColor=none;top=0;left=0;bottom=0;right=0;editable=1;overflow=hidden;whiteSpace=wrap;html=1;" vertex="1" parent="4cTYFnNjRpCWiYsqCbcR-14">
          <mxGeometry width="30" height="30" as="geometry">
            <mxRectangle width="30" height="30" as="alternateBounds" />
          </mxGeometry>
        </mxCell>
        <mxCell id="4cTYFnNjRpCWiYsqCbcR-16" value="DataCriacao: NVARCHAR(MAX)" style="shape=partialRectangle;connectable=0;fillColor=none;top=0;left=0;bottom=0;right=0;align=left;spacingLeft=6;overflow=hidden;whiteSpace=wrap;html=1;" vertex="1" parent="4cTYFnNjRpCWiYsqCbcR-14">
          <mxGeometry x="30" width="209.75" height="30" as="geometry">
            <mxRectangle width="209.75" height="30" as="alternateBounds" />
          </mxGeometry>
        </mxCell>
        <mxCell id="4cTYFnNjRpCWiYsqCbcR-17" value="" style="shape=tableRow;horizontal=0;startSize=0;swimlaneHead=0;swimlaneBody=0;fillColor=none;collapsible=0;dropTarget=0;points=[[0,0.5],[1,0.5]];portConstraint=eastwest;top=0;left=0;right=0;bottom=0;" vertex="1" parent="4cTYFnNjRpCWiYsqCbcR-1">
          <mxGeometry y="180" width="239.75" height="30" as="geometry" />
        </mxCell>
        <mxCell id="4cTYFnNjRpCWiYsqCbcR-18" value="" style="shape=partialRectangle;connectable=0;fillColor=none;top=0;left=0;bottom=0;right=0;editable=1;overflow=hidden;whiteSpace=wrap;html=1;" vertex="1" parent="4cTYFnNjRpCWiYsqCbcR-17">
          <mxGeometry width="30" height="30" as="geometry">
            <mxRectangle width="30" height="30" as="alternateBounds" />
          </mxGeometry>
        </mxCell>
        <mxCell id="4cTYFnNjRpCWiYsqCbcR-19" value="AvatarURL: NVARCHAR(MAX)" style="shape=partialRectangle;connectable=0;fillColor=none;top=0;left=0;bottom=0;right=0;align=left;spacingLeft=6;overflow=hidden;whiteSpace=wrap;html=1;" vertex="1" parent="4cTYFnNjRpCWiYsqCbcR-17">
          <mxGeometry x="30" width="209.75" height="30" as="geometry">
            <mxRectangle width="209.75" height="30" as="alternateBounds" />
          </mxGeometry>
        </mxCell>
        <mxCell id="zSYXW1qYqLA8g867tIXC-58" value="Postagens" style="shape=table;startSize=30;container=1;collapsible=1;childLayout=tableLayout;fixedRows=1;rowLines=0;fontStyle=1;align=center;resizeLast=1;html=1;whiteSpace=wrap;" vertex="1" parent="1">
          <mxGeometry x="-489" y="-660" width="273.75" height="180" as="geometry" />
        </mxCell>
        <mxCell id="zSYXW1qYqLA8g867tIXC-62" value="" style="shape=tableRow;horizontal=0;startSize=0;swimlaneHead=0;swimlaneBody=0;fillColor=none;collapsible=0;dropTarget=0;points=[[0,0.5],[1,0.5]];portConstraint=eastwest;top=0;left=0;right=0;bottom=1;html=1;" vertex="1" parent="zSYXW1qYqLA8g867tIXC-58">
          <mxGeometry y="30" width="273.75" height="30" as="geometry" />
        </mxCell>
        <mxCell id="zSYXW1qYqLA8g867tIXC-63" value="PK" style="shape=partialRectangle;connectable=0;fillColor=none;top=0;left=0;bottom=0;right=0;fontStyle=1;overflow=hidden;html=1;whiteSpace=wrap;" vertex="1" parent="zSYXW1qYqLA8g867tIXC-62">
          <mxGeometry width="60" height="30" as="geometry">
            <mxRectangle width="60" height="30" as="alternateBounds" />
          </mxGeometry>
        </mxCell>
        <mxCell id="zSYXW1qYqLA8g867tIXC-64" value="IdPostagem : INT" style="shape=partialRectangle;connectable=0;fillColor=none;top=0;left=0;bottom=0;right=0;align=left;spacingLeft=6;fontStyle=5;overflow=hidden;html=1;whiteSpace=wrap;" vertex="1" parent="zSYXW1qYqLA8g867tIXC-62">
          <mxGeometry x="60" width="213.75" height="30" as="geometry">
            <mxRectangle width="213.75" height="30" as="alternateBounds" />
          </mxGeometry>
        </mxCell>
        <mxCell id="zSYXW1qYqLA8g867tIXC-104" value="" style="shape=tableRow;horizontal=0;startSize=0;swimlaneHead=0;swimlaneBody=0;fillColor=none;collapsible=0;dropTarget=0;points=[[0,0.5],[1,0.5]];portConstraint=eastwest;top=0;left=0;right=0;bottom=0;html=1;" vertex="1" parent="zSYXW1qYqLA8g867tIXC-58">
          <mxGeometry y="60" width="273.75" height="30" as="geometry" />
        </mxCell>
        <mxCell id="zSYXW1qYqLA8g867tIXC-105" value="" style="shape=partialRectangle;connectable=0;fillColor=none;top=0;left=0;bottom=0;right=0;editable=1;overflow=hidden;html=1;whiteSpace=wrap;" vertex="1" parent="zSYXW1qYqLA8g867tIXC-104">
          <mxGeometry width="60" height="30" as="geometry">
            <mxRectangle width="60" height="30" as="alternateBounds" />
          </mxGeometry>
        </mxCell>
        <mxCell id="zSYXW1qYqLA8g867tIXC-106" value="ConteudoTexto : NVARCHAR(MAX)" style="shape=partialRectangle;connectable=0;fillColor=none;top=0;left=0;bottom=0;right=0;align=left;spacingLeft=6;overflow=hidden;html=1;whiteSpace=wrap;" vertex="1" parent="zSYXW1qYqLA8g867tIXC-104">
          <mxGeometry x="60" width="213.75" height="30" as="geometry">
            <mxRectangle width="213.75" height="30" as="alternateBounds" />
          </mxGeometry>
        </mxCell>
        <mxCell id="zSYXW1qYqLA8g867tIXC-107" value="" style="shape=tableRow;horizontal=0;startSize=0;swimlaneHead=0;swimlaneBody=0;fillColor=none;collapsible=0;dropTarget=0;points=[[0,0.5],[1,0.5]];portConstraint=eastwest;top=0;left=0;right=0;bottom=0;html=1;" vertex="1" parent="zSYXW1qYqLA8g867tIXC-58">
          <mxGeometry y="90" width="273.75" height="30" as="geometry" />
        </mxCell>
        <mxCell id="zSYXW1qYqLA8g867tIXC-108" value="" style="shape=partialRectangle;connectable=0;fillColor=none;top=0;left=0;bottom=0;right=0;editable=1;overflow=hidden;html=1;whiteSpace=wrap;" vertex="1" parent="zSYXW1qYqLA8g867tIXC-107">
          <mxGeometry width="60" height="30" as="geometry">
            <mxRectangle width="60" height="30" as="alternateBounds" />
          </mxGeometry>
        </mxCell>
        <mxCell id="zSYXW1qYqLA8g867tIXC-109" value="Imagem&amp;nbsp;" style="shape=partialRectangle;connectable=0;fillColor=none;top=0;left=0;bottom=0;right=0;align=left;spacingLeft=6;overflow=hidden;html=1;whiteSpace=wrap;" vertex="1" parent="zSYXW1qYqLA8g867tIXC-107">
          <mxGeometry x="60" width="213.75" height="30" as="geometry">
            <mxRectangle width="213.75" height="30" as="alternateBounds" />
          </mxGeometry>
        </mxCell>
        <mxCell id="zSYXW1qYqLA8g867tIXC-116" value="" style="shape=tableRow;horizontal=0;startSize=0;swimlaneHead=0;swimlaneBody=0;fillColor=none;collapsible=0;dropTarget=0;points=[[0,0.5],[1,0.5]];portConstraint=eastwest;top=0;left=0;right=0;bottom=1;html=1;" vertex="1" parent="zSYXW1qYqLA8g867tIXC-58">
          <mxGeometry y="120" width="273.75" height="30" as="geometry" />
        </mxCell>
        <mxCell id="zSYXW1qYqLA8g867tIXC-117" value="" style="shape=partialRectangle;connectable=0;fillColor=none;top=0;left=0;bottom=0;right=0;fontStyle=1;overflow=hidden;html=1;whiteSpace=wrap;" vertex="1" parent="zSYXW1qYqLA8g867tIXC-116">
          <mxGeometry width="60" height="30" as="geometry">
            <mxRectangle width="60" height="30" as="alternateBounds" />
          </mxGeometry>
        </mxCell>
        <mxCell id="zSYXW1qYqLA8g867tIXC-118" value="&lt;span style=&quot;font-weight: 400;&quot;&gt;DataHora: DATATIME&lt;/span&gt;" style="shape=partialRectangle;connectable=0;fillColor=none;top=0;left=0;bottom=0;right=0;align=left;spacingLeft=6;fontStyle=5;overflow=hidden;html=1;whiteSpace=wrap;" vertex="1" parent="zSYXW1qYqLA8g867tIXC-116">
          <mxGeometry x="60" width="213.75" height="30" as="geometry">
            <mxRectangle width="213.75" height="30" as="alternateBounds" />
          </mxGeometry>
        </mxCell>
        <mxCell id="zSYXW1qYqLA8g867tIXC-119" value="" style="shape=tableRow;horizontal=0;startSize=0;swimlaneHead=0;swimlaneBody=0;fillColor=none;collapsible=0;dropTarget=0;points=[[0,0.5],[1,0.5]];portConstraint=eastwest;top=0;left=0;right=0;bottom=0;html=1;" vertex="1" parent="zSYXW1qYqLA8g867tIXC-58">
          <mxGeometry y="150" width="273.75" height="30" as="geometry" />
        </mxCell>
        <mxCell id="zSYXW1qYqLA8g867tIXC-120" value="FK" style="shape=partialRectangle;connectable=0;fillColor=none;top=0;left=0;bottom=0;right=0;editable=1;overflow=hidden;html=1;whiteSpace=wrap;" vertex="1" parent="zSYXW1qYqLA8g867tIXC-119">
          <mxGeometry width="60" height="30" as="geometry">
            <mxRectangle width="60" height="30" as="alternateBounds" />
          </mxGeometry>
        </mxCell>
        <mxCell id="zSYXW1qYqLA8g867tIXC-121" value="IdUsuarios : INT" style="shape=partialRectangle;connectable=0;fillColor=none;top=0;left=0;bottom=0;right=0;align=left;spacingLeft=6;overflow=hidden;html=1;whiteSpace=wrap;" vertex="1" parent="zSYXW1qYqLA8g867tIXC-119">
          <mxGeometry x="60" width="213.75" height="30" as="geometry">
            <mxRectangle width="213.75" height="30" as="alternateBounds" />
          </mxGeometry>
        </mxCell>
        <mxCell id="U5jcQn9r3DQeQliH6_L2-1" value="Comentarios" style="shape=table;startSize=30;container=1;collapsible=1;childLayout=tableLayout;fixedRows=1;rowLines=0;fontStyle=1;align=center;resizeLast=1;html=1;whiteSpace=wrap;" vertex="1" parent="1">
          <mxGeometry x="-86" y="-579" width="273.75" height="179" as="geometry" />
        </mxCell>
        <mxCell id="U5jcQn9r3DQeQliH6_L2-2" value="" style="shape=tableRow;horizontal=0;startSize=0;swimlaneHead=0;swimlaneBody=0;fillColor=none;collapsible=0;dropTarget=0;points=[[0,0.5],[1,0.5]];portConstraint=eastwest;top=0;left=0;right=0;bottom=1;html=1;" vertex="1" parent="U5jcQn9r3DQeQliH6_L2-1">
          <mxGeometry y="30" width="273.75" height="30" as="geometry" />
        </mxCell>
        <mxCell id="U5jcQn9r3DQeQliH6_L2-3" value="PK" style="shape=partialRectangle;connectable=0;fillColor=none;top=0;left=0;bottom=0;right=0;fontStyle=1;overflow=hidden;html=1;whiteSpace=wrap;" vertex="1" parent="U5jcQn9r3DQeQliH6_L2-2">
          <mxGeometry width="60" height="30" as="geometry">
            <mxRectangle width="60" height="30" as="alternateBounds" />
          </mxGeometry>
        </mxCell>
        <mxCell id="U5jcQn9r3DQeQliH6_L2-4" value="IdComentario : INT" style="shape=partialRectangle;connectable=0;fillColor=none;top=0;left=0;bottom=0;right=0;align=left;spacingLeft=6;fontStyle=5;overflow=hidden;html=1;whiteSpace=wrap;" vertex="1" parent="U5jcQn9r3DQeQliH6_L2-2">
          <mxGeometry x="60" width="213.75" height="30" as="geometry">
            <mxRectangle width="213.75" height="30" as="alternateBounds" />
          </mxGeometry>
        </mxCell>
        <mxCell id="U5jcQn9r3DQeQliH6_L2-5" value="" style="shape=tableRow;horizontal=0;startSize=0;swimlaneHead=0;swimlaneBody=0;fillColor=none;collapsible=0;dropTarget=0;points=[[0,0.5],[1,0.5]];portConstraint=eastwest;top=0;left=0;right=0;bottom=0;html=1;" vertex="1" parent="U5jcQn9r3DQeQliH6_L2-1">
          <mxGeometry y="60" width="273.75" height="30" as="geometry" />
        </mxCell>
        <mxCell id="U5jcQn9r3DQeQliH6_L2-6" value="" style="shape=partialRectangle;connectable=0;fillColor=none;top=0;left=0;bottom=0;right=0;editable=1;overflow=hidden;html=1;whiteSpace=wrap;" vertex="1" parent="U5jcQn9r3DQeQliH6_L2-5">
          <mxGeometry width="60" height="30" as="geometry">
            <mxRectangle width="60" height="30" as="alternateBounds" />
          </mxGeometry>
        </mxCell>
        <mxCell id="U5jcQn9r3DQeQliH6_L2-7" value="ConteudoTexto : NVARCHAR(MAX)" style="shape=partialRectangle;connectable=0;fillColor=none;top=0;left=0;bottom=0;right=0;align=left;spacingLeft=6;overflow=hidden;html=1;whiteSpace=wrap;" vertex="1" parent="U5jcQn9r3DQeQliH6_L2-5">
          <mxGeometry x="60" width="213.75" height="30" as="geometry">
            <mxRectangle width="213.75" height="30" as="alternateBounds" />
          </mxGeometry>
        </mxCell>
        <mxCell id="U5jcQn9r3DQeQliH6_L2-11" value="" style="shape=tableRow;horizontal=0;startSize=0;swimlaneHead=0;swimlaneBody=0;fillColor=none;collapsible=0;dropTarget=0;points=[[0,0.5],[1,0.5]];portConstraint=eastwest;top=0;left=0;right=0;bottom=1;html=1;" vertex="1" parent="U5jcQn9r3DQeQliH6_L2-1">
          <mxGeometry y="90" width="273.75" height="30" as="geometry" />
        </mxCell>
        <mxCell id="U5jcQn9r3DQeQliH6_L2-12" value="" style="shape=partialRectangle;connectable=0;fillColor=none;top=0;left=0;bottom=0;right=0;fontStyle=1;overflow=hidden;html=1;whiteSpace=wrap;" vertex="1" parent="U5jcQn9r3DQeQliH6_L2-11">
          <mxGeometry width="60" height="30" as="geometry">
            <mxRectangle width="60" height="30" as="alternateBounds" />
          </mxGeometry>
        </mxCell>
        <mxCell id="U5jcQn9r3DQeQliH6_L2-13" value="&lt;span style=&quot;font-weight: 400;&quot;&gt;DataHora: DATATIME&lt;/span&gt;" style="shape=partialRectangle;connectable=0;fillColor=none;top=0;left=0;bottom=0;right=0;align=left;spacingLeft=6;fontStyle=5;overflow=hidden;html=1;whiteSpace=wrap;" vertex="1" parent="U5jcQn9r3DQeQliH6_L2-11">
          <mxGeometry x="60" width="213.75" height="30" as="geometry">
            <mxRectangle width="213.75" height="30" as="alternateBounds" />
          </mxGeometry>
        </mxCell>
        <mxCell id="U5jcQn9r3DQeQliH6_L2-14" value="" style="shape=tableRow;horizontal=0;startSize=0;swimlaneHead=0;swimlaneBody=0;fillColor=none;collapsible=0;dropTarget=0;points=[[0,0.5],[1,0.5]];portConstraint=eastwest;top=0;left=0;right=0;bottom=0;html=1;" vertex="1" parent="U5jcQn9r3DQeQliH6_L2-1">
          <mxGeometry y="120" width="273.75" height="29" as="geometry" />
        </mxCell>
        <mxCell id="U5jcQn9r3DQeQliH6_L2-15" value="FK" style="shape=partialRectangle;connectable=0;fillColor=none;top=0;left=0;bottom=0;right=0;editable=1;overflow=hidden;html=1;whiteSpace=wrap;" vertex="1" parent="U5jcQn9r3DQeQliH6_L2-14">
          <mxGeometry width="60" height="29" as="geometry">
            <mxRectangle width="60" height="29" as="alternateBounds" />
          </mxGeometry>
        </mxCell>
        <mxCell id="U5jcQn9r3DQeQliH6_L2-16" value="IdPostagem : INT" style="shape=partialRectangle;connectable=0;fillColor=none;top=0;left=0;bottom=0;right=0;align=left;spacingLeft=6;overflow=hidden;html=1;whiteSpace=wrap;" vertex="1" parent="U5jcQn9r3DQeQliH6_L2-14">
          <mxGeometry x="60" width="213.75" height="29" as="geometry">
            <mxRectangle width="213.75" height="29" as="alternateBounds" />
          </mxGeometry>
        </mxCell>
        <mxCell id="U5jcQn9r3DQeQliH6_L2-17" value="" style="shape=tableRow;horizontal=0;startSize=0;swimlaneHead=0;swimlaneBody=0;fillColor=none;collapsible=0;dropTarget=0;points=[[0,0.5],[1,0.5]];portConstraint=eastwest;top=0;left=0;right=0;bottom=0;html=1;" vertex="1" parent="U5jcQn9r3DQeQliH6_L2-1">
          <mxGeometry y="149" width="273.75" height="30" as="geometry" />
        </mxCell>
        <mxCell id="U5jcQn9r3DQeQliH6_L2-18" value="FK" style="shape=partialRectangle;connectable=0;fillColor=none;top=0;left=0;bottom=0;right=0;editable=1;overflow=hidden;html=1;whiteSpace=wrap;" vertex="1" parent="U5jcQn9r3DQeQliH6_L2-17">
          <mxGeometry width="60" height="30" as="geometry">
            <mxRectangle width="60" height="30" as="alternateBounds" />
          </mxGeometry>
        </mxCell>
        <mxCell id="U5jcQn9r3DQeQliH6_L2-19" value="IdUsuarios : INT" style="shape=partialRectangle;connectable=0;fillColor=none;top=0;left=0;bottom=0;right=0;align=left;spacingLeft=6;overflow=hidden;html=1;whiteSpace=wrap;" vertex="1" parent="U5jcQn9r3DQeQliH6_L2-17">
          <mxGeometry x="60" width="213.75" height="30" as="geometry">
            <mxRectangle width="213.75" height="30" as="alternateBounds" />
          </mxGeometry>
        </mxCell>
        <mxCell id="U5jcQn9r3DQeQliH6_L2-20" value="Curtidas" style="shape=table;startSize=30;container=1;collapsible=1;childLayout=tableLayout;fixedRows=1;rowLines=0;fontStyle=1;align=center;resizeLast=1;html=1;" vertex="1" parent="1">
          <mxGeometry x="360" y="-567" width="239.75" height="150" as="geometry" />
        </mxCell>
        <mxCell id="U5jcQn9r3DQeQliH6_L2-21" value="" style="shape=tableRow;horizontal=0;startSize=0;swimlaneHead=0;swimlaneBody=0;fillColor=none;collapsible=0;dropTarget=0;points=[[0,0.5],[1,0.5]];portConstraint=eastwest;top=0;left=0;right=0;bottom=1;" vertex="1" parent="U5jcQn9r3DQeQliH6_L2-20">
          <mxGeometry y="30" width="239.75" height="30" as="geometry" />
        </mxCell>
        <mxCell id="U5jcQn9r3DQeQliH6_L2-22" value="PK" style="shape=partialRectangle;connectable=0;fillColor=none;top=0;left=0;bottom=0;right=0;fontStyle=1;overflow=hidden;whiteSpace=wrap;html=1;" vertex="1" parent="U5jcQn9r3DQeQliH6_L2-21">
          <mxGeometry width="30" height="30" as="geometry">
            <mxRectangle width="30" height="30" as="alternateBounds" />
          </mxGeometry>
        </mxCell>
        <mxCell id="U5jcQn9r3DQeQliH6_L2-23" value="IdCurtida : INT" style="shape=partialRectangle;connectable=0;fillColor=none;top=0;left=0;bottom=0;right=0;align=left;spacingLeft=6;fontStyle=5;overflow=hidden;whiteSpace=wrap;html=1;" vertex="1" parent="U5jcQn9r3DQeQliH6_L2-21">
          <mxGeometry x="30" width="209.75" height="30" as="geometry">
            <mxRectangle width="209.75" height="30" as="alternateBounds" />
          </mxGeometry>
        </mxCell>
        <mxCell id="U5jcQn9r3DQeQliH6_L2-24" value="" style="shape=tableRow;horizontal=0;startSize=0;swimlaneHead=0;swimlaneBody=0;fillColor=none;collapsible=0;dropTarget=0;points=[[0,0.5],[1,0.5]];portConstraint=eastwest;top=0;left=0;right=0;bottom=0;" vertex="1" parent="U5jcQn9r3DQeQliH6_L2-20">
          <mxGeometry y="60" width="239.75" height="30" as="geometry" />
        </mxCell>
        <mxCell id="U5jcQn9r3DQeQliH6_L2-25" value="FK" style="shape=partialRectangle;connectable=0;fillColor=none;top=0;left=0;bottom=0;right=0;editable=1;overflow=hidden;whiteSpace=wrap;html=1;" vertex="1" parent="U5jcQn9r3DQeQliH6_L2-24">
          <mxGeometry width="30" height="30" as="geometry">
            <mxRectangle width="30" height="30" as="alternateBounds" />
          </mxGeometry>
        </mxCell>
        <mxCell id="U5jcQn9r3DQeQliH6_L2-26" value="IdUsuario : INT" style="shape=partialRectangle;connectable=0;fillColor=none;top=0;left=0;bottom=0;right=0;align=left;spacingLeft=6;overflow=hidden;whiteSpace=wrap;html=1;" vertex="1" parent="U5jcQn9r3DQeQliH6_L2-24">
          <mxGeometry x="30" width="209.75" height="30" as="geometry">
            <mxRectangle width="209.75" height="30" as="alternateBounds" />
          </mxGeometry>
        </mxCell>
        <mxCell id="U5jcQn9r3DQeQliH6_L2-27" value="" style="shape=tableRow;horizontal=0;startSize=0;swimlaneHead=0;swimlaneBody=0;fillColor=none;collapsible=0;dropTarget=0;points=[[0,0.5],[1,0.5]];portConstraint=eastwest;top=0;left=0;right=0;bottom=0;" vertex="1" parent="U5jcQn9r3DQeQliH6_L2-20">
          <mxGeometry y="90" width="239.75" height="30" as="geometry" />
        </mxCell>
        <mxCell id="U5jcQn9r3DQeQliH6_L2-28" value="FK" style="shape=partialRectangle;connectable=0;fillColor=none;top=0;left=0;bottom=0;right=0;editable=1;overflow=hidden;whiteSpace=wrap;html=1;" vertex="1" parent="U5jcQn9r3DQeQliH6_L2-27">
          <mxGeometry width="30" height="30" as="geometry">
            <mxRectangle width="30" height="30" as="alternateBounds" />
          </mxGeometry>
        </mxCell>
        <mxCell id="U5jcQn9r3DQeQliH6_L2-29" value="IdPostagem : INT" style="shape=partialRectangle;connectable=0;fillColor=none;top=0;left=0;bottom=0;right=0;align=left;spacingLeft=6;overflow=hidden;whiteSpace=wrap;html=1;" vertex="1" parent="U5jcQn9r3DQeQliH6_L2-27">
          <mxGeometry x="30" width="209.75" height="30" as="geometry">
            <mxRectangle width="209.75" height="30" as="alternateBounds" />
          </mxGeometry>
        </mxCell>
        <mxCell id="U5jcQn9r3DQeQliH6_L2-36" value="" style="shape=tableRow;horizontal=0;startSize=0;swimlaneHead=0;swimlaneBody=0;fillColor=none;collapsible=0;dropTarget=0;points=[[0,0.5],[1,0.5]];portConstraint=eastwest;top=0;left=0;right=0;bottom=0;" vertex="1" parent="U5jcQn9r3DQeQliH6_L2-20">
          <mxGeometry y="120" width="239.75" height="30" as="geometry" />
        </mxCell>
        <mxCell id="U5jcQn9r3DQeQliH6_L2-37" value="FK" style="shape=partialRectangle;connectable=0;fillColor=none;top=0;left=0;bottom=0;right=0;editable=1;overflow=hidden;whiteSpace=wrap;html=1;" vertex="1" parent="U5jcQn9r3DQeQliH6_L2-36">
          <mxGeometry width="30" height="30" as="geometry">
            <mxRectangle width="30" height="30" as="alternateBounds" />
          </mxGeometry>
        </mxCell>
        <mxCell id="U5jcQn9r3DQeQliH6_L2-38" value="IdComentario : INT" style="shape=partialRectangle;connectable=0;fillColor=none;top=0;left=0;bottom=0;right=0;align=left;spacingLeft=6;overflow=hidden;whiteSpace=wrap;html=1;" vertex="1" parent="U5jcQn9r3DQeQliH6_L2-36">
          <mxGeometry x="30" width="209.75" height="30" as="geometry">
            <mxRectangle width="209.75" height="30" as="alternateBounds" />
          </mxGeometry>
        </mxCell>
        <mxCell id="U5jcQn9r3DQeQliH6_L2-58" value="Grupos" style="shape=table;startSize=30;container=1;collapsible=1;childLayout=tableLayout;fixedRows=1;rowLines=0;fontStyle=1;align=center;resizeLast=1;html=1;whiteSpace=wrap;" vertex="1" parent="1">
          <mxGeometry x="-576" y="-307" width="273.75" height="180" as="geometry" />
        </mxCell>
        <mxCell id="U5jcQn9r3DQeQliH6_L2-59" value="" style="shape=tableRow;horizontal=0;startSize=0;swimlaneHead=0;swimlaneBody=0;fillColor=none;collapsible=0;dropTarget=0;points=[[0,0.5],[1,0.5]];portConstraint=eastwest;top=0;left=0;right=0;bottom=1;html=1;" vertex="1" parent="U5jcQn9r3DQeQliH6_L2-58">
          <mxGeometry y="30" width="273.75" height="30" as="geometry" />
        </mxCell>
        <mxCell id="U5jcQn9r3DQeQliH6_L2-60" value="PK" style="shape=partialRectangle;connectable=0;fillColor=none;top=0;left=0;bottom=0;right=0;fontStyle=1;overflow=hidden;html=1;whiteSpace=wrap;" vertex="1" parent="U5jcQn9r3DQeQliH6_L2-59">
          <mxGeometry width="60" height="30" as="geometry">
            <mxRectangle width="60" height="30" as="alternateBounds" />
          </mxGeometry>
        </mxCell>
        <mxCell id="U5jcQn9r3DQeQliH6_L2-61" value="IdGrupo : INT" style="shape=partialRectangle;connectable=0;fillColor=none;top=0;left=0;bottom=0;right=0;align=left;spacingLeft=6;fontStyle=5;overflow=hidden;html=1;whiteSpace=wrap;" vertex="1" parent="U5jcQn9r3DQeQliH6_L2-59">
          <mxGeometry x="60" width="213.75" height="30" as="geometry">
            <mxRectangle width="213.75" height="30" as="alternateBounds" />
          </mxGeometry>
        </mxCell>
        <mxCell id="U5jcQn9r3DQeQliH6_L2-62" value="" style="shape=tableRow;horizontal=0;startSize=0;swimlaneHead=0;swimlaneBody=0;fillColor=none;collapsible=0;dropTarget=0;points=[[0,0.5],[1,0.5]];portConstraint=eastwest;top=0;left=0;right=0;bottom=0;html=1;" vertex="1" parent="U5jcQn9r3DQeQliH6_L2-58">
          <mxGeometry y="60" width="273.75" height="30" as="geometry" />
        </mxCell>
        <mxCell id="U5jcQn9r3DQeQliH6_L2-63" value="" style="shape=partialRectangle;connectable=0;fillColor=none;top=0;left=0;bottom=0;right=0;editable=1;overflow=hidden;html=1;whiteSpace=wrap;" vertex="1" parent="U5jcQn9r3DQeQliH6_L2-62">
          <mxGeometry width="60" height="30" as="geometry">
            <mxRectangle width="60" height="30" as="alternateBounds" />
          </mxGeometry>
        </mxCell>
        <mxCell id="U5jcQn9r3DQeQliH6_L2-64" value="NomeGrupo : NVARCHAR(MAX)" style="shape=partialRectangle;connectable=0;fillColor=none;top=0;left=0;bottom=0;right=0;align=left;spacingLeft=6;overflow=hidden;html=1;whiteSpace=wrap;" vertex="1" parent="U5jcQn9r3DQeQliH6_L2-62">
          <mxGeometry x="60" width="213.75" height="30" as="geometry">
            <mxRectangle width="213.75" height="30" as="alternateBounds" />
          </mxGeometry>
        </mxCell>
        <mxCell id="U5jcQn9r3DQeQliH6_L2-65" value="" style="shape=tableRow;horizontal=0;startSize=0;swimlaneHead=0;swimlaneBody=0;fillColor=none;collapsible=0;dropTarget=0;points=[[0,0.5],[1,0.5]];portConstraint=eastwest;top=0;left=0;right=0;bottom=0;html=1;" vertex="1" parent="U5jcQn9r3DQeQliH6_L2-58">
          <mxGeometry y="90" width="273.75" height="30" as="geometry" />
        </mxCell>
        <mxCell id="U5jcQn9r3DQeQliH6_L2-66" value="" style="shape=partialRectangle;connectable=0;fillColor=none;top=0;left=0;bottom=0;right=0;editable=1;overflow=hidden;html=1;whiteSpace=wrap;" vertex="1" parent="U5jcQn9r3DQeQliH6_L2-65">
          <mxGeometry width="60" height="30" as="geometry">
            <mxRectangle width="60" height="30" as="alternateBounds" />
          </mxGeometry>
        </mxCell>
        <mxCell id="U5jcQn9r3DQeQliH6_L2-67" value="Descricao : NVARCHAR(MAX)" style="shape=partialRectangle;connectable=0;fillColor=none;top=0;left=0;bottom=0;right=0;align=left;spacingLeft=6;overflow=hidden;html=1;whiteSpace=wrap;" vertex="1" parent="U5jcQn9r3DQeQliH6_L2-65">
          <mxGeometry x="60" width="213.75" height="30" as="geometry">
            <mxRectangle width="213.75" height="30" as="alternateBounds" />
          </mxGeometry>
        </mxCell>
        <mxCell id="U5jcQn9r3DQeQliH6_L2-68" value="" style="shape=tableRow;horizontal=0;startSize=0;swimlaneHead=0;swimlaneBody=0;fillColor=none;collapsible=0;dropTarget=0;points=[[0,0.5],[1,0.5]];portConstraint=eastwest;top=0;left=0;right=0;bottom=1;html=1;" vertex="1" parent="U5jcQn9r3DQeQliH6_L2-58">
          <mxGeometry y="120" width="273.75" height="30" as="geometry" />
        </mxCell>
        <mxCell id="U5jcQn9r3DQeQliH6_L2-69" value="" style="shape=partialRectangle;connectable=0;fillColor=none;top=0;left=0;bottom=0;right=0;fontStyle=1;overflow=hidden;html=1;whiteSpace=wrap;" vertex="1" parent="U5jcQn9r3DQeQliH6_L2-68">
          <mxGeometry width="60" height="30" as="geometry">
            <mxRectangle width="60" height="30" as="alternateBounds" />
          </mxGeometry>
        </mxCell>
        <mxCell id="U5jcQn9r3DQeQliH6_L2-70" value="&lt;span style=&quot;font-weight: normal;&quot;&gt;DataCriacao: NVARCHAR(MAX)&lt;/span&gt;" style="shape=partialRectangle;connectable=0;fillColor=none;top=0;left=0;bottom=0;right=0;align=left;spacingLeft=6;fontStyle=5;overflow=hidden;html=1;whiteSpace=wrap;" vertex="1" parent="U5jcQn9r3DQeQliH6_L2-68">
          <mxGeometry x="60" width="213.75" height="30" as="geometry">
            <mxRectangle width="213.75" height="30" as="alternateBounds" />
          </mxGeometry>
        </mxCell>
        <mxCell id="U5jcQn9r3DQeQliH6_L2-71" value="" style="shape=tableRow;horizontal=0;startSize=0;swimlaneHead=0;swimlaneBody=0;fillColor=none;collapsible=0;dropTarget=0;points=[[0,0.5],[1,0.5]];portConstraint=eastwest;top=0;left=0;right=0;bottom=0;html=1;" vertex="1" parent="U5jcQn9r3DQeQliH6_L2-58">
          <mxGeometry y="150" width="273.75" height="30" as="geometry" />
        </mxCell>
        <mxCell id="U5jcQn9r3DQeQliH6_L2-72" value="FK" style="shape=partialRectangle;connectable=0;fillColor=none;top=0;left=0;bottom=0;right=0;editable=1;overflow=hidden;html=1;whiteSpace=wrap;" vertex="1" parent="U5jcQn9r3DQeQliH6_L2-71">
          <mxGeometry width="60" height="30" as="geometry">
            <mxRectangle width="60" height="30" as="alternateBounds" />
          </mxGeometry>
        </mxCell>
        <mxCell id="U5jcQn9r3DQeQliH6_L2-73" value="IdAdmin" style="shape=partialRectangle;connectable=0;fillColor=none;top=0;left=0;bottom=0;right=0;align=left;spacingLeft=6;overflow=hidden;html=1;whiteSpace=wrap;" vertex="1" parent="U5jcQn9r3DQeQliH6_L2-71">
          <mxGeometry x="60" width="213.75" height="30" as="geometry">
            <mxRectangle width="213.75" height="30" as="alternateBounds" />
          </mxGeometry>
        </mxCell>
        <mxCell id="U5jcQn9r3DQeQliH6_L2-77" value="Membros" style="shape=table;startSize=30;container=1;collapsible=1;childLayout=tableLayout;fixedRows=1;rowLines=0;fontStyle=1;align=center;resizeLast=1;html=1;whiteSpace=wrap;" vertex="1" parent="1">
          <mxGeometry x="-228" y="101" width="273.75" height="149" as="geometry" />
        </mxCell>
        <mxCell id="U5jcQn9r3DQeQliH6_L2-78" value="" style="shape=tableRow;horizontal=0;startSize=0;swimlaneHead=0;swimlaneBody=0;fillColor=none;collapsible=0;dropTarget=0;points=[[0,0.5],[1,0.5]];portConstraint=eastwest;top=0;left=0;right=0;bottom=1;html=1;" vertex="1" parent="U5jcQn9r3DQeQliH6_L2-77">
          <mxGeometry y="30" width="273.75" height="30" as="geometry" />
        </mxCell>
        <mxCell id="U5jcQn9r3DQeQliH6_L2-79" value="PK" style="shape=partialRectangle;connectable=0;fillColor=none;top=0;left=0;bottom=0;right=0;fontStyle=1;overflow=hidden;html=1;whiteSpace=wrap;" vertex="1" parent="U5jcQn9r3DQeQliH6_L2-78">
          <mxGeometry width="60" height="30" as="geometry">
            <mxRectangle width="60" height="30" as="alternateBounds" />
          </mxGeometry>
        </mxCell>
        <mxCell id="U5jcQn9r3DQeQliH6_L2-80" value="IdMembro : INT" style="shape=partialRectangle;connectable=0;fillColor=none;top=0;left=0;bottom=0;right=0;align=left;spacingLeft=6;fontStyle=5;overflow=hidden;html=1;whiteSpace=wrap;" vertex="1" parent="U5jcQn9r3DQeQliH6_L2-78">
          <mxGeometry x="60" width="213.75" height="30" as="geometry">
            <mxRectangle width="213.75" height="30" as="alternateBounds" />
          </mxGeometry>
        </mxCell>
        <mxCell id="U5jcQn9r3DQeQliH6_L2-81" value="" style="shape=tableRow;horizontal=0;startSize=0;swimlaneHead=0;swimlaneBody=0;fillColor=none;collapsible=0;dropTarget=0;points=[[0,0.5],[1,0.5]];portConstraint=eastwest;top=0;left=0;right=0;bottom=0;html=1;" vertex="1" parent="U5jcQn9r3DQeQliH6_L2-77">
          <mxGeometry y="60" width="273.75" height="30" as="geometry" />
        </mxCell>
        <mxCell id="U5jcQn9r3DQeQliH6_L2-82" value="FK" style="shape=partialRectangle;connectable=0;fillColor=none;top=0;left=0;bottom=0;right=0;editable=1;overflow=hidden;html=1;whiteSpace=wrap;" vertex="1" parent="U5jcQn9r3DQeQliH6_L2-81">
          <mxGeometry width="60" height="30" as="geometry">
            <mxRectangle width="60" height="30" as="alternateBounds" />
          </mxGeometry>
        </mxCell>
        <mxCell id="U5jcQn9r3DQeQliH6_L2-83" value="IdUsuario : INT" style="shape=partialRectangle;connectable=0;fillColor=none;top=0;left=0;bottom=0;right=0;align=left;spacingLeft=6;overflow=hidden;html=1;whiteSpace=wrap;" vertex="1" parent="U5jcQn9r3DQeQliH6_L2-81">
          <mxGeometry x="60" width="213.75" height="30" as="geometry">
            <mxRectangle width="213.75" height="30" as="alternateBounds" />
          </mxGeometry>
        </mxCell>
        <mxCell id="U5jcQn9r3DQeQliH6_L2-84" value="" style="shape=tableRow;horizontal=0;startSize=0;swimlaneHead=0;swimlaneBody=0;fillColor=none;collapsible=0;dropTarget=0;points=[[0,0.5],[1,0.5]];portConstraint=eastwest;top=0;left=0;right=0;bottom=1;html=1;" vertex="1" parent="U5jcQn9r3DQeQliH6_L2-77">
          <mxGeometry y="90" width="273.75" height="30" as="geometry" />
        </mxCell>
        <mxCell id="U5jcQn9r3DQeQliH6_L2-85" value="FK" style="shape=partialRectangle;connectable=0;fillColor=none;top=0;left=0;bottom=0;right=0;fontStyle=1;overflow=hidden;html=1;whiteSpace=wrap;" vertex="1" parent="U5jcQn9r3DQeQliH6_L2-84">
          <mxGeometry width="60" height="30" as="geometry">
            <mxRectangle width="60" height="30" as="alternateBounds" />
          </mxGeometry>
        </mxCell>
        <mxCell id="U5jcQn9r3DQeQliH6_L2-86" value="&lt;span style=&quot;font-weight: normal;&quot;&gt;IdGrupo&amp;nbsp;: INT&lt;/span&gt;" style="shape=partialRectangle;connectable=0;fillColor=none;top=0;left=0;bottom=0;right=0;align=left;spacingLeft=6;fontStyle=5;overflow=hidden;html=1;whiteSpace=wrap;" vertex="1" parent="U5jcQn9r3DQeQliH6_L2-84">
          <mxGeometry x="60" width="213.75" height="30" as="geometry">
            <mxRectangle width="213.75" height="30" as="alternateBounds" />
          </mxGeometry>
        </mxCell>
        <mxCell id="U5jcQn9r3DQeQliH6_L2-87" value="" style="shape=tableRow;horizontal=0;startSize=0;swimlaneHead=0;swimlaneBody=0;fillColor=none;collapsible=0;dropTarget=0;points=[[0,0.5],[1,0.5]];portConstraint=eastwest;top=0;left=0;right=0;bottom=0;html=1;" vertex="1" parent="U5jcQn9r3DQeQliH6_L2-77">
          <mxGeometry y="120" width="273.75" height="29" as="geometry" />
        </mxCell>
        <mxCell id="U5jcQn9r3DQeQliH6_L2-88" value="" style="shape=partialRectangle;connectable=0;fillColor=none;top=0;left=0;bottom=0;right=0;editable=1;overflow=hidden;html=1;whiteSpace=wrap;" vertex="1" parent="U5jcQn9r3DQeQliH6_L2-87">
          <mxGeometry width="60" height="29" as="geometry">
            <mxRectangle width="60" height="29" as="alternateBounds" />
          </mxGeometry>
        </mxCell>
        <mxCell id="U5jcQn9r3DQeQliH6_L2-89" value="DataEntrada: NVARCHAR(MAX)" style="shape=partialRectangle;connectable=0;fillColor=none;top=0;left=0;bottom=0;right=0;align=left;spacingLeft=6;overflow=hidden;html=1;whiteSpace=wrap;" vertex="1" parent="U5jcQn9r3DQeQliH6_L2-87">
          <mxGeometry x="60" width="213.75" height="29" as="geometry">
            <mxRectangle width="213.75" height="29" as="alternateBounds" />
          </mxGeometry>
        </mxCell>
        <mxCell id="U5jcQn9r3DQeQliH6_L2-93" value="Jogos" style="shape=table;startSize=30;container=1;collapsible=1;childLayout=tableLayout;fixedRows=1;rowLines=0;fontStyle=1;align=center;resizeLast=1;html=1;" vertex="1" parent="1">
          <mxGeometry x="181" y="4" width="239.75" height="120" as="geometry" />
        </mxCell>
        <mxCell id="U5jcQn9r3DQeQliH6_L2-94" value="" style="shape=tableRow;horizontal=0;startSize=0;swimlaneHead=0;swimlaneBody=0;fillColor=none;collapsible=0;dropTarget=0;points=[[0,0.5],[1,0.5]];portConstraint=eastwest;top=0;left=0;right=0;bottom=1;" vertex="1" parent="U5jcQn9r3DQeQliH6_L2-93">
          <mxGeometry y="30" width="239.75" height="30" as="geometry" />
        </mxCell>
        <mxCell id="U5jcQn9r3DQeQliH6_L2-95" value="PK" style="shape=partialRectangle;connectable=0;fillColor=none;top=0;left=0;bottom=0;right=0;fontStyle=1;overflow=hidden;whiteSpace=wrap;html=1;" vertex="1" parent="U5jcQn9r3DQeQliH6_L2-94">
          <mxGeometry width="30" height="30" as="geometry">
            <mxRectangle width="30" height="30" as="alternateBounds" />
          </mxGeometry>
        </mxCell>
        <mxCell id="U5jcQn9r3DQeQliH6_L2-96" value="IdJogo : INT" style="shape=partialRectangle;connectable=0;fillColor=none;top=0;left=0;bottom=0;right=0;align=left;spacingLeft=6;fontStyle=5;overflow=hidden;whiteSpace=wrap;html=1;" vertex="1" parent="U5jcQn9r3DQeQliH6_L2-94">
          <mxGeometry x="30" width="209.75" height="30" as="geometry">
            <mxRectangle width="209.75" height="30" as="alternateBounds" />
          </mxGeometry>
        </mxCell>
        <mxCell id="U5jcQn9r3DQeQliH6_L2-97" value="" style="shape=tableRow;horizontal=0;startSize=0;swimlaneHead=0;swimlaneBody=0;fillColor=none;collapsible=0;dropTarget=0;points=[[0,0.5],[1,0.5]];portConstraint=eastwest;top=0;left=0;right=0;bottom=0;" vertex="1" parent="U5jcQn9r3DQeQliH6_L2-93">
          <mxGeometry y="60" width="239.75" height="30" as="geometry" />
        </mxCell>
        <mxCell id="U5jcQn9r3DQeQliH6_L2-98" value="" style="shape=partialRectangle;connectable=0;fillColor=none;top=0;left=0;bottom=0;right=0;editable=1;overflow=hidden;whiteSpace=wrap;html=1;" vertex="1" parent="U5jcQn9r3DQeQliH6_L2-97">
          <mxGeometry width="30" height="30" as="geometry">
            <mxRectangle width="30" height="30" as="alternateBounds" />
          </mxGeometry>
        </mxCell>
        <mxCell id="U5jcQn9r3DQeQliH6_L2-99" value="NomeJogo : NVARCHAR(MAX)" style="shape=partialRectangle;connectable=0;fillColor=none;top=0;left=0;bottom=0;right=0;align=left;spacingLeft=6;overflow=hidden;whiteSpace=wrap;html=1;" vertex="1" parent="U5jcQn9r3DQeQliH6_L2-97">
          <mxGeometry x="30" width="209.75" height="30" as="geometry">
            <mxRectangle width="209.75" height="30" as="alternateBounds" />
          </mxGeometry>
        </mxCell>
        <mxCell id="U5jcQn9r3DQeQliH6_L2-103" value="" style="shape=tableRow;horizontal=0;startSize=0;swimlaneHead=0;swimlaneBody=0;fillColor=none;collapsible=0;dropTarget=0;points=[[0,0.5],[1,0.5]];portConstraint=eastwest;top=0;left=0;right=0;bottom=0;" vertex="1" parent="U5jcQn9r3DQeQliH6_L2-93">
          <mxGeometry y="90" width="239.75" height="30" as="geometry" />
        </mxCell>
        <mxCell id="U5jcQn9r3DQeQliH6_L2-104" value="" style="shape=partialRectangle;connectable=0;fillColor=none;top=0;left=0;bottom=0;right=0;editable=1;overflow=hidden;whiteSpace=wrap;html=1;" vertex="1" parent="U5jcQn9r3DQeQliH6_L2-103">
          <mxGeometry width="30" height="30" as="geometry">
            <mxRectangle width="30" height="30" as="alternateBounds" />
          </mxGeometry>
        </mxCell>
        <mxCell id="U5jcQn9r3DQeQliH6_L2-105" value="Genero" style="shape=partialRectangle;connectable=0;fillColor=none;top=0;left=0;bottom=0;right=0;align=left;spacingLeft=6;overflow=hidden;whiteSpace=wrap;html=1;" vertex="1" parent="U5jcQn9r3DQeQliH6_L2-103">
          <mxGeometry x="30" width="209.75" height="30" as="geometry">
            <mxRectangle width="209.75" height="30" as="alternateBounds" />
          </mxGeometry>
        </mxCell>
        <mxCell id="U5jcQn9r3DQeQliH6_L2-132" value="GrupoJogo" style="shape=table;startSize=31;container=1;collapsible=1;childLayout=tableLayout;fixedRows=1;rowLines=0;fontStyle=1;align=center;resizeLast=1;html=1;" vertex="1" parent="1">
          <mxGeometry x="455" y="-250" width="152.75" height="91" as="geometry" />
        </mxCell>
        <mxCell id="U5jcQn9r3DQeQliH6_L2-136" value="" style="shape=tableRow;horizontal=0;startSize=0;swimlaneHead=0;swimlaneBody=0;fillColor=none;collapsible=0;dropTarget=0;points=[[0,0.5],[1,0.5]];portConstraint=eastwest;top=0;left=0;right=0;bottom=0;" vertex="1" parent="U5jcQn9r3DQeQliH6_L2-132">
          <mxGeometry y="31" width="152.75" height="30" as="geometry" />
        </mxCell>
        <mxCell id="U5jcQn9r3DQeQliH6_L2-137" value="FK" style="shape=partialRectangle;connectable=0;fillColor=none;top=0;left=0;bottom=0;right=0;editable=1;overflow=hidden;whiteSpace=wrap;html=1;" vertex="1" parent="U5jcQn9r3DQeQliH6_L2-136">
          <mxGeometry width="30" height="30" as="geometry">
            <mxRectangle width="30" height="30" as="alternateBounds" />
          </mxGeometry>
        </mxCell>
        <mxCell id="U5jcQn9r3DQeQliH6_L2-138" value="IdGrupo : INT" style="shape=partialRectangle;connectable=0;fillColor=none;top=0;left=0;bottom=0;right=0;align=left;spacingLeft=6;overflow=hidden;whiteSpace=wrap;html=1;" vertex="1" parent="U5jcQn9r3DQeQliH6_L2-136">
          <mxGeometry x="30" width="122.75" height="30" as="geometry">
            <mxRectangle width="122.75" height="30" as="alternateBounds" />
          </mxGeometry>
        </mxCell>
        <mxCell id="U5jcQn9r3DQeQliH6_L2-139" value="" style="shape=tableRow;horizontal=0;startSize=0;swimlaneHead=0;swimlaneBody=0;fillColor=none;collapsible=0;dropTarget=0;points=[[0,0.5],[1,0.5]];portConstraint=eastwest;top=0;left=0;right=0;bottom=0;" vertex="1" parent="U5jcQn9r3DQeQliH6_L2-132">
          <mxGeometry y="61" width="152.75" height="30" as="geometry" />
        </mxCell>
        <mxCell id="U5jcQn9r3DQeQliH6_L2-140" value="FK" style="shape=partialRectangle;connectable=0;fillColor=none;top=0;left=0;bottom=0;right=0;editable=1;overflow=hidden;whiteSpace=wrap;html=1;" vertex="1" parent="U5jcQn9r3DQeQliH6_L2-139">
          <mxGeometry width="30" height="30" as="geometry">
            <mxRectangle width="30" height="30" as="alternateBounds" />
          </mxGeometry>
        </mxCell>
        <mxCell id="U5jcQn9r3DQeQliH6_L2-141" value="IdJogo : INT" style="shape=partialRectangle;connectable=0;fillColor=none;top=0;left=0;bottom=0;right=0;align=left;spacingLeft=6;overflow=hidden;whiteSpace=wrap;html=1;" vertex="1" parent="U5jcQn9r3DQeQliH6_L2-139">
          <mxGeometry x="30" width="122.75" height="30" as="geometry">
            <mxRectangle width="122.75" height="30" as="alternateBounds" />
          </mxGeometry>
        </mxCell>
        <mxCell id="Tt5lcGAO-KKUTSCHcGsw-2" value="" style="edgeStyle=entityRelationEdgeStyle;fontSize=12;html=1;endArrow=ERoneToMany;rounded=0;startSize=8;endSize=8;curved=1;entryX=0;entryY=0.5;entryDx=0;entryDy=0;exitX=1;exitY=0.5;exitDx=0;exitDy=0;" edge="1" parent="1" source="4cTYFnNjRpCWiYsqCbcR-2" target="zSYXW1qYqLA8g867tIXC-119">
          <mxGeometry width="100" height="100" relative="1" as="geometry">
            <mxPoint x="-636" y="-282" as="sourcePoint" />
            <mxPoint x="-536" y="-382" as="targetPoint" />
          </mxGeometry>
        </mxCell>
        <mxCell id="Tt5lcGAO-KKUTSCHcGsw-3" value="" style="edgeStyle=entityRelationEdgeStyle;fontSize=12;html=1;endArrow=ERoneToMany;rounded=0;startSize=8;endSize=8;curved=1;entryX=0;entryY=0.5;entryDx=0;entryDy=0;exitX=1;exitY=0.5;exitDx=0;exitDy=0;" edge="1" parent="1" source="zSYXW1qYqLA8g867tIXC-62" target="U5jcQn9r3DQeQliH6_L2-14">
          <mxGeometry width="100" height="100" relative="1" as="geometry">
            <mxPoint x="-315" y="-321" as="sourcePoint" />
            <mxPoint x="-137" y="-374" as="targetPoint" />
          </mxGeometry>
        </mxCell>
        <mxCell id="Tt5lcGAO-KKUTSCHcGsw-4" value="" style="edgeStyle=entityRelationEdgeStyle;fontSize=12;html=1;endArrow=ERoneToMany;rounded=0;startSize=8;endSize=8;curved=1;entryX=0;entryY=0.5;entryDx=0;entryDy=0;exitX=1;exitY=0.5;exitDx=0;exitDy=0;" edge="1" parent="1" source="U5jcQn9r3DQeQliH6_L2-2" target="U5jcQn9r3DQeQliH6_L2-36">
          <mxGeometry width="100" height="100" relative="1" as="geometry">
            <mxPoint x="255" y="-405" as="sourcePoint" />
            <mxPoint x="384" y="-234" as="targetPoint" />
          </mxGeometry>
        </mxCell>
        <mxCell id="nbIbRRxFUKaRuKjbNzoz-2" value="" style="edgeStyle=entityRelationEdgeStyle;fontSize=12;html=1;endArrow=ERmany;startArrow=ERmany;rounded=0;startSize=8;endSize=8;curved=1;exitX=1;exitY=0.5;exitDx=0;exitDy=0;entryX=0;entryY=0.5;entryDx=0;entryDy=0;" edge="1" parent="1" source="U5jcQn9r3DQeQliH6_L2-59" target="U5jcQn9r3DQeQliH6_L2-136">
          <mxGeometry width="100" height="100" relative="1" as="geometry">
            <mxPoint x="-181" y="6" as="sourcePoint" />
            <mxPoint x="-81" y="-57" as="targetPoint" />
          </mxGeometry>
        </mxCell>
        <mxCell id="nbIbRRxFUKaRuKjbNzoz-3" value="" style="edgeStyle=entityRelationEdgeStyle;fontSize=12;html=1;endArrow=ERmany;startArrow=ERmany;rounded=0;startSize=8;endSize=8;curved=1;exitX=1;exitY=0.5;exitDx=0;exitDy=0;entryX=0;entryY=0.5;entryDx=0;entryDy=0;" edge="1" parent="1" source="U5jcQn9r3DQeQliH6_L2-59" target="U5jcQn9r3DQeQliH6_L2-84">
          <mxGeometry width="100" height="100" relative="1" as="geometry">
            <mxPoint x="-611" y="7" as="sourcePoint" />
            <mxPoint x="423" y="-13" as="targetPoint" />
          </mxGeometry>
        </mxCell>
        <mxCell id="75X1tbSdF2MStRdqujYE-1" value="" style="edgeStyle=entityRelationEdgeStyle;fontSize=12;html=1;endArrow=ERoneToMany;rounded=0;startSize=8;endSize=8;curved=1;entryX=0;entryY=0.5;entryDx=0;entryDy=0;exitX=1;exitY=0.5;exitDx=0;exitDy=0;" edge="1" parent="1" source="4cTYFnNjRpCWiYsqCbcR-2" target="U5jcQn9r3DQeQliH6_L2-71">
          <mxGeometry width="100" height="100" relative="1" as="geometry">
            <mxPoint x="-657" y="-432" as="sourcePoint" />
            <mxPoint x="-479" y="-485" as="targetPoint" />
          </mxGeometry>
        </mxCell>
        <mxCell id="75X1tbSdF2MStRdqujYE-2" value="" style="edgeStyle=entityRelationEdgeStyle;fontSize=12;html=1;endArrow=ERmany;startArrow=ERmany;rounded=0;startSize=8;endSize=8;curved=1;exitX=1;exitY=0.5;exitDx=0;exitDy=0;entryX=0;entryY=0.5;entryDx=0;entryDy=0;" edge="1" parent="1" source="U5jcQn9r3DQeQliH6_L2-94" target="U5jcQn9r3DQeQliH6_L2-139">
          <mxGeometry width="100" height="100" relative="1" as="geometry">
            <mxPoint x="490" y="114" as="sourcePoint" />
            <mxPoint x="562" y="446" as="targetPoint" />
          </mxGeometry>
        </mxCell>
        <mxCell id="o_hgIURutppR2NwQwVx9-1" value="" style="edgeStyle=entityRelationEdgeStyle;fontSize=12;html=1;endArrow=ERmany;startArrow=ERmany;rounded=0;startSize=8;endSize=8;curved=1;exitX=1;exitY=0.5;exitDx=0;exitDy=0;entryX=0;entryY=0.5;entryDx=0;entryDy=0;" edge="1" parent="1" source="U5jcQn9r3DQeQliH6_L2-59" target="U5jcQn9r3DQeQliH6_L2-94">
          <mxGeometry width="100" height="100" relative="1" as="geometry">
            <mxPoint x="-273" y="-52" as="sourcePoint" />
            <mxPoint x="490" y="-41" as="targetPoint" />
          </mxGeometry>
        </mxCell>
        <mxCell id="o_hgIURutppR2NwQwVx9-2" value="" style="edgeStyle=entityRelationEdgeStyle;fontSize=12;html=1;endArrow=ERmany;startArrow=ERmany;rounded=0;startSize=8;endSize=8;curved=1;exitX=1;exitY=0.5;exitDx=0;exitDy=0;entryX=0;entryY=0.5;entryDx=0;entryDy=0;" edge="1" parent="1" source="U5jcQn9r3DQeQliH6_L2-81" target="U5jcQn9r3DQeQliH6_L2-94">
          <mxGeometry width="100" height="100" relative="1" as="geometry">
            <mxPoint x="119" y="263" as="sourcePoint" />
            <mxPoint x="596" y="430" as="targetPoint" />
          </mxGeometry>
        </mxCell>
      </root>
    </mxGraphModel>
  </diagram>
</mxfile>
